# xmcd
#
# Track frame offsets:
#   150
#   14329
#   32822
#   51155
#   66560
#   81725
#   98603
#   114406
#   129709
#   147310
#   161857
#   178795
#   193387
#   212394
#   225866
#   241797
#   257844
#   272593
#   289615
#   304515
#   322459
#   338705
#
# Disc length: 4721 seconds
#
# Revision: 0
# Processed by: cddbd v1.5.1PL2 Copyright (c) Steve Scherf et al.
# Submitted via: GXTranscoder 2.0.1939
#
DISCID=4a126f16
DTITLE=Avril Lavigne - Best Of
DYEAR=2005
DGENRE=Blues
TTITLE0=Knockin' on Heaven's Door (Live)
TTITLE1=Complicated
TTITLE2=My happy Ending
TTITLE3=Sky8er Boy
TTITLE4=Nobody's Home (Live)
TTITLE5=I'm with you
TTITLE6=Fall to Pieces
TTITLE7=Don't Tell Me
TTITLE8=Losing Grip
TTITLE9=Freak Out
TTITLE10=Things I'll Never say
TTITLE11=He Wasn't (Live)
TTITLE12=Anything But Ordinary
TTITLE13=Take me Away
TTITLE14=Who Knows
TTITLE15=Slipped Away
TTITLE16=Together
TTITLE17=How does it Feel
TTITLE18=Forgotten
TTITLE19=Nobody's Fool
TTITLE20=Tomorrow (Live)
TTITLE21=Naked
EXTD=
EXTT0=
EXTT1=
EXTT2=
EXTT3=
EXTT4=
EXTT5=
EXTT6=
EXTT7=
EXTT8=
EXTT9=
EXTT10=
EXTT11=
EXTT12=
EXTT13=
EXTT14=
EXTT15=
EXTT16=
EXTT17=
EXTT18=
EXTT19=
EXTT20=
EXTT21=
PLAYORDER=
